<svg viewBox="0 0 24 24" xmlns="http://www.w3.org/2000/svg" xmlns:xlink="http://www.w3.org/1999/xlink" width="24.000000" height="24.000000" fill="none">
	<rect id="minus_sun" width="24.000000" height="24.000000" x="0.000000" y="0.000000" />
	<rect id="矩形 28" width="24.000000" height="24.000000" x="0.000000" y="0.000000" opacity="0" fill="rgb(0,0,0)" />
	<g id="组合 31">
		<path id="矢量 41" d="M12 18.98C13.2933 18.98 14.49 18.67 15.59 18.05C16.6833 17.4233 17.55 16.5733 18.19 15.5C18.83 14.4333 19.15 13.2667 19.15 12C19.15 10.7333 18.83 9.56666 18.19 8.49999C17.55 7.42666 16.6833 6.57332 15.59 5.93999C14.49 5.30666 13.2933 4.98999 12 4.98999C10.7067 4.98999 9.51001 5.30666 8.41001 5.93999C7.31668 6.57332 6.45001 7.42666 5.81001 8.49999C5.17001 9.56666 4.85001 10.7333 4.85001 12C4.85001 13.2667 5.17001 14.43 5.81001 15.49C6.45001 16.5567 7.31668 17.4067 8.41001 18.04C9.51001 18.6667 10.7067 18.98 12 18.98ZM12 6.49999C13.0267 6.49999 13.97 6.74999 14.83 7.24999C15.6967 7.74332 16.3867 8.40999 16.9 9.24999C17.4067 10.09 17.66 11.0067 17.66 12C17.66 12.9933 17.4067 13.91 16.9 14.75C16.3867 15.59 15.6967 16.2567 14.83 16.75C13.97 17.25 13.0267 17.5 12 17.5C10.9933 17.5 10.0567 17.25 9.19001 16.75C8.33001 16.2567 7.64334 15.59 7.13001 14.75C6.61668 13.91 6.36001 12.9933 6.36001 12C6.36001 11.0067 6.61334 10.09 7.12001 9.24999C7.62001 8.40999 8.30334 7.74332 9.17001 7.24999C10.03 6.74999 10.9733 6.49999 12 6.49999ZM12 4.00999C12.2067 4.00999 12.3867 3.93666 12.54 3.78999C12.6933 3.64999 12.77 3.47332 12.77 3.25999L12.77 2.22999C12.77 2.02332 12.6933 1.84666 12.54 1.69999C12.3867 1.55999 12.2067 1.48999 12 1.48999C11.7933 1.48999 11.6167 1.55999 11.47 1.69999C11.33 1.84666 11.26 2.02332 11.26 2.22999L11.26 3.25999C11.26 3.47332 11.33 3.64999 11.47 3.78999C11.6167 3.93666 11.7933 4.00999 12 4.00999ZM6.22001 6.33999C6.36001 6.19332 6.43001 6.01666 6.43001 5.80999C6.43001 5.60332 6.35001 5.42666 6.19001 5.27999L5.28001 4.38999C5.12001 4.24999 4.94001 4.17999 4.74001 4.17999C4.54001 4.17999 4.36668 4.25999 4.22001 4.41999C4.08001 4.55999 4.01001 4.73332 4.01001 4.93999C4.01001 5.15332 4.09001 5.32999 4.25001 5.46999L5.16001 6.35999L5.21001 6.40999C5.37001 6.53666 5.54001 6.59332 5.72001 6.57999C5.90668 6.55999 6.07334 6.47999 6.22001 6.33999ZM6.24001 18.65C6.36668 18.5033 6.42668 18.34 6.42001 18.16C6.41334 17.9733 6.34668 17.8067 6.22001 17.66C6.07334 17.52 5.89668 17.4467 5.69001 17.44C5.48334 17.4267 5.30668 17.4933 5.16001 17.64L4.25001 18.55C4.09001 18.6967 4.01001 18.87 4.01001 19.07C4.01001 19.27 4.08001 19.45 4.22001 19.61C4.36668 19.75 4.54001 19.82 4.74001 19.82C4.94001 19.82 5.12001 19.7567 5.28001 19.63L6.19001 18.72L6.24001 18.65ZM3.07001 12.77C3.27668 12.77 3.45334 12.6967 3.60001 12.55C3.74668 12.41 3.82001 12.2333 3.82001 12.02C3.82001 11.8133 3.74668 11.64 3.60001 11.5C3.45334 11.3533 3.27668 11.28 3.07001 11.28L1.75001 11.26C1.54334 11.26 1.36668 11.33 1.22001 11.47C1.08001 11.6167 1.01001 11.7933 1.01001 12C1.01001 12.2067 1.08001 12.3833 1.22001 12.53C1.36668 12.67 1.54334 12.74 1.75001 12.74L3.07001 12.77ZM17.81 6.33999C17.97 6.49999 18.1467 6.58332 18.34 6.58999C18.5267 6.59666 18.7 6.51999 18.86 6.35999L19.78 5.46999C19.8733 5.37666 19.94 5.26666 19.98 5.13999C20.02 5.00666 20.0233 4.87666 19.99 4.74999C19.9567 4.62332 19.8933 4.51332 19.8 4.41999C19.6533 4.25999 19.4767 4.17999 19.27 4.17999C19.0633 4.17999 18.8867 4.24999 18.74 4.38999L17.81 5.27999C17.6633 5.42666 17.59 5.60332 17.59 5.80999C17.59 6.01666 17.6633 6.19332 17.81 6.33999ZM19.8 19.61C19.9467 19.45 20.02 19.27 20.02 19.07C20.02 18.87 19.94 18.6967 19.78 18.55L18.86 17.64C18.7 17.5133 18.52 17.45 18.32 17.45C18.12 17.45 17.95 17.52 17.81 17.66C17.6633 17.82 17.59 18 17.59 18.2C17.59 18.4 17.6633 18.5733 17.81 18.72L18.74 19.63C18.9 19.7567 19.08 19.82 19.28 19.82C19.48 19.82 19.6533 19.75 19.8 19.61ZM22.25 12.74C22.4567 12.7267 22.6333 12.6467 22.78 12.5C22.92 12.36 22.99 12.1867 22.99 11.98C22.99 11.7667 22.92 11.59 22.78 11.45C22.6333 11.3033 22.4567 11.23 22.25 11.23L20.93 11.26C20.7233 11.2733 20.55 11.3533 20.41 11.5C20.2767 11.64 20.21 11.8133 20.21 12.02C20.21 12.2333 20.28 12.41 20.42 12.55C20.5667 12.6967 20.7433 12.77 20.95 12.77L22.25 12.74ZM12 22.49C12.2067 22.49 12.3867 22.4167 12.54 22.27C12.6933 22.13 12.77 21.9533 12.77 21.74L12.77 20.71C12.77 20.5033 12.6933 20.3267 12.54 20.18C12.3867 20.04 12.2067 19.97 12 19.97C11.7933 19.97 11.6167 20.04 11.47 20.18C11.33 20.3267 11.26 20.5033 11.26 20.71L11.26 21.74C11.26 21.9533 11.33 22.13 11.47 22.27C11.6167 22.4167 11.7933 22.49 12 22.49Z" fill="rgb(0,0,0)" fill-opacity="0.600000024" fill-rule="nonzero" />
		<path id="矢量 42" d="M14.26 12.77C14.4667 12.77 14.64 12.6933 14.78 12.54C14.9267 12.3867 15 12.2067 15 12C15 11.7933 14.9267 11.6167 14.78 11.47C14.64 11.33 14.4667 11.26 14.26 11.26L9.77 11.26C9.56333 11.26 9.38333 11.33 9.23 11.47C9.07667 11.6167 9 11.7933 9 12C9 12.2067 9.07667 12.3867 9.23 12.54C9.38333 12.6933 9.56333 12.77 9.77 12.77L14.26 12.77Z" fill="rgb(0,0,0)" fill-opacity="0.600000024" fill-rule="nonzero" />
	</g>
</svg>
